<?xml version="1.0" encoding="iso-8859-1"?>
<!-- Generator: Adobe Illustrator 19.0.0, SVG Export Plug-In . SVG Version: 6.00 Build 0)  -->
<svg version="1.1" id="Capa_1" xmlns="http://www.w3.org/2000/svg" xmlns:xlink="http://www.w3.org/1999/xlink" x="0px" y="0px"
	 viewBox="0 0 489.625 489.625" style="enable-background:new 0 0 489.625 489.625;" xml:space="preserve">
<g>
	<g>
		<g>
			<path d="M196.613,381.925c-8.6,25.7-15.6,52.1-20.6,78.9c11.3-11.3,22.2-23.3,31.5-36.2c0,20.6,3.1,41.2,9.3,61.1
				c8.2-20.2,14-41.2,17.9-62.6c9.3,10.9,29.7,56.7,52.1,66.5c-4.3-24.5-8.6-49-12.4-73.5c14,23.3,31.9,44.7,55.2,58.3
				c-12.8-31.1-26.1-61.8-39.7-92.6h-93.3V381.925z"/>
			<path d="M286.813,356.325l17.5-302.2c0-2.3-0.8-4.3-2.3-5.4l-51.7-46.7c-2.7-2.7-7.4-2.7-10.1,0l-51.7,46.7
				c-1.6,1.6-2.3,3.5-2.3,5.4l14.4,302.2H286.813z M244.813,85.625c17.9,0,32.3,14.4,32.3,32.3s-14.4,32.3-32.3,32.3
				s-32.3-14.4-32.3-32.3C212.512,100.025,226.913,85.625,244.813,85.625z"/>
			<polygon points="313.612,238.025 308.212,332.525 384.013,332.525 384.013,300.725 			"/>
			<polygon points="174.413,239.625 105.612,300.725 105.612,332.525 178.712,332.525 			"/>
		</g>
	</g>
</g>
<g>
</g>
<g>
</g>
<g>
</g>
<g>
</g>
<g>
</g>
<g>
</g>
<g>
</g>
<g>
</g>
<g>
</g>
<g>
</g>
<g>
</g>
<g>
</g>
<g>
</g>
<g>
</g>
<g>
</g>
</svg>
